<?xml version="1.0" standalone="no"?>
<!DOCTYPE svg PUBLIC "-//W3C//DTD SVG 20010904//EN"
 "http://www.w3.org/TR/2001/REC-SVG-20010904/DTD/svg10.dtd">
<svg version="1.0" xmlns="http://www.w3.org/2000/svg"
 width="862.000000pt" height="553.000000pt" viewBox="0 0 862.000000 553.000000"
 preserveAspectRatio="xMidYMid meet">

<g transform="translate(0.000000,553.000000) scale(0.100000,-0.100000)"
fill="#000000" stroke="none">
<path d="M4202 5098 c-54 -113 -71 -267 -127 -1178 -46 -746 -71 -1097 -95
-1341 -30 -297 -82 -587 -109 -604 -5 -3 -36 5 -68 16 -44 17 -73 38 -124 90
-37 37 -79 71 -94 75 -45 11 -181 -2 -222 -23 -25 -11 -46 -33 -61 -61 -57
-103 -224 -126 -717 -97 -303 18 -471 16 -575 -6 -62 -13 -150 -48 -150 -59 0
-4 27 -19 60 -34 99 -45 180 -49 775 -39 628 10 569 -1 706 130 47 46 89 83
93 83 8 0 224 -187 249 -215 34 -39 65 -111 81 -190 18 -88 95 -325 106 -325
9 0 77 224 84 280 3 25 31 371 61 770 30 399 64 849 76 1000 25 338 47 581 52
586 2 3 7 -98 10 -223 3 -126 22 -424 42 -663 59 -726 64 -802 75 -1170 20
-689 39 -1027 71 -1313 26 -230 81 -449 108 -433 12 8 56 142 71 216 26 129
45 395 71 970 6 140 16 302 23 359 l11 104 70 22 c130 40 219 104 270 193 66
113 123 139 285 129 113 -7 176 -32 296 -118 256 -182 419 -214 1002 -192
l182 6 0 64 0 63 -352 -2 -353 -3 -85 29 c-47 16 -186 78 -310 138 -268 130
-335 151 -464 146 -76 -2 -101 -8 -144 -30 -77 -40 -131 -88 -151 -133 -30
-66 -106 -116 -248 -163 -88 -29 -123 -37 -123 -27 0 7 -49 521 -110 1141 -99
1024 -126 1349 -145 1724 -4 69 -11 145 -16 170 -11 51 -58 160 -69 160 -3 0
-12 -10 -18 -22z"/>
</g>
</svg>
